M48
; DRILL file {KiCad (5.1.2)-1} date 11.08.2019 00:06:18
; FORMAT={-:-/ absolute / inch / decimal}
; #@! TF.CreationDate,2019-08-11T00:06:18+02:00
; #@! TF.GenerationSoftware,Kicad,Pcbnew,(5.1.2)-1
; #@! TF.FileFunction,Plated,1,2,PTH
FMAT,2
INCH
T1C0.0157
T2C0.0173
T3C0.0394
T4C0.0531
T5C0.0551
%
G90
G05
T1
X3.125Y-5.75
X3.28Y-4.02
X3.35Y-5.0
X3.38Y-3.32
X3.42Y-3.92
X3.45Y-4.85
X3.525Y-5.625
X3.525Y-5.625
X3.58Y-4.96
X3.62Y-4.78
X3.62Y-4.98
X3.64Y-3.56
X3.64Y-4.64
X3.64Y-4.68
X3.64Y-4.72
X3.65Y-4.85
X3.74Y-4.7
X3.9Y-5.325
X3.93Y-6.05
X3.975Y-5.5
X3.98Y-4.68
X4.025Y-5.725
X4.05Y-3.8
X4.06Y-5.56
X4.075Y-5.03
X4.14Y-5.42
X4.15Y-3.875
X4.16Y-5.24
X4.2Y-5.55
X4.28Y-4.56
X4.36Y-4.94
X4.42Y-3.5
X4.42Y-4.54
X4.44Y-5.44
X4.46Y-5.24
X4.46Y-5.82
X4.48Y-3.14
X4.48Y-4.7
X4.52Y-4.36
X4.525Y-3.75
X4.525Y-3.975
X4.56Y-4.66
X4.5754Y-5.52
X4.58Y-3.94
X4.58Y-4.12
X4.5954Y-5.42
X4.6019Y-4.5309
X4.62Y-5.14
X4.64Y-5.36
X4.64Y-5.58
X4.6518Y-5.74
X4.68Y-5.72
X4.68Y-5.8
X4.7Y-4.02
X4.7289Y-4.3827
X4.7304Y-4.9024
X4.731Y-4.9535
X4.7333Y-5.1281
X4.7599Y-5.18
X4.76Y-4.94
X4.78Y-5.34
X4.7905Y-5.1726
X4.7909Y-4.946
X4.8031Y-5.1421
X4.82Y-4.26
X4.82Y-4.68
X4.84Y-5.96
X4.8799Y-5.3549
X4.88Y-3.4
X4.88Y-3.82
X4.9Y-4.94
X4.92Y-4.9646
X4.9281Y-5.403
X4.9318Y-4.7472
X4.96Y-4.9154
X4.9604Y-5.3149
X4.9874Y-4.7326
X4.9952Y-4.6969
X5.005Y-5.0
X5.02Y-4.66
X5.0502Y-5.1327
X5.06Y-3.52
X5.062Y-4.78
X5.0625Y-4.8205
X5.12Y-3.72
X5.15Y-4.575
X5.1502Y-5.3327
X5.2002Y-4.6554
X5.24Y-5.8
X5.28Y-4.7046
X5.285Y-5.015
X5.32Y-3.92
X5.32Y-5.8246
X5.38Y-4.68
X5.4Y-5.8
X5.4002Y-4.5827
X5.48Y-3.38
X5.54Y-3.22
X5.54Y-5.02
X5.54Y-5.4
X5.55Y-3.4
X5.6004Y-4.8977
X5.64Y-3.18
X5.64Y-4.88
X5.64Y-5.7995
X5.64Y-5.08
X5.65Y-3.35
X5.6577Y-4.9377
X5.68Y-3.22
X5.68Y-4.86
X5.68Y-4.96
X5.7Y-4.66
X5.7Y-5.42
X5.72Y-4.86
X5.7603Y-6.0554
X5.79Y-5.005
X5.825Y-3.15
X5.86Y-5.16
X5.875Y-3.15
X5.92Y-5.46
X5.9655Y-6.1046
X6.06Y-5.78
X6.0754Y-5.44
X6.1Y-5.7954
X6.145Y-4.85
X6.16Y-3.28
X6.16Y-3.4
X6.16Y-4.24
X6.18Y-5.02
X6.19Y-5.415
X6.2Y-4.24
X6.2Y-5.08
X6.22Y-5.02
X6.22Y-5.14
X6.26Y-4.24
X6.265Y-5.84
X6.29Y-5.455
X6.29Y-5.455
X6.32Y-3.24
X6.34Y-5.36
X6.3646Y-5.42
X6.38Y-5.12
X6.4Y-5.46
X6.46Y-3.44
X6.46Y-3.54
X6.46Y-3.64
X6.46Y-4.02
X6.46Y-4.92
X6.47Y-5.73
X6.4754Y-4.32
X6.4937Y-4.86
X6.5046Y-4.12
X6.5225Y-4.2175
X6.5446Y-4.2745
X6.58Y-4.32
X6.6Y-3.78
X6.6Y-4.54
X6.6Y-5.44
X6.62Y-4.08
X6.62Y-4.36
T2
X4.06Y-5.2776
X4.06Y-5.3288
X4.06Y-5.38
X4.0994Y-5.3032
X4.0994Y-5.3544
X3.4806Y-5.0456
X3.4806Y-5.0968
X3.52Y-5.02
X3.52Y-5.0712
X3.52Y-5.1224
T3
X4.1Y-5.9
X4.1Y-6.0
X4.2Y-5.9
X4.2Y-6.0
X4.3Y-5.9
X4.3Y-6.0
X4.4Y-5.9
X4.4Y-6.0
X4.5Y-5.9
X4.5Y-6.0
X4.6Y-5.9
X4.6Y-6.0
X4.7Y-5.9
X4.7Y-6.0
X4.8Y-5.9
X4.8Y-6.0
X4.9Y-5.9
X4.9Y-6.0
X5.0Y-5.9
X5.0Y-6.0
X5.1Y-5.9
X5.1Y-6.0
X5.2Y-5.9
X5.2Y-6.0
X5.3Y-5.9
X5.3Y-6.0
X5.4Y-5.9
X5.4Y-6.0
X5.5Y-5.9
X5.5Y-6.0
X5.6Y-5.9
X5.6Y-6.0
X5.7Y-5.9
X5.7Y-6.0
X5.8Y-5.9
X5.8Y-6.0
X5.9Y-5.9
X5.9Y-6.0
X6.0Y-5.9
X6.0Y-6.0
X3.76Y-4.82
X3.76Y-4.92
X3.76Y-5.02
X3.76Y-5.12
X3.76Y-5.22
X6.72Y-5.48
X6.72Y-5.58
X6.72Y-5.68
X6.26Y-3.36
X6.26Y-3.46
X6.26Y-3.56
X6.26Y-3.66
X6.26Y-3.76
X6.26Y-3.86
X6.26Y-3.96
X6.26Y-4.06
X6.36Y-3.36
X6.36Y-3.46
X6.36Y-3.56
X6.36Y-3.66
X6.36Y-3.76
X6.36Y-3.86
X6.36Y-3.96
X6.36Y-4.06
X5.66Y-4.02
X5.76Y-4.02
X5.86Y-4.02
X5.44Y-5.54
X5.44Y-5.64
X5.54Y-5.54
X5.54Y-5.64
X5.64Y-5.54
X5.64Y-5.64
X5.74Y-5.54
X5.74Y-5.64
X5.84Y-5.54
X5.84Y-5.64
X5.94Y-5.54
X5.94Y-5.64
X6.04Y-5.54
X6.04Y-5.64
X6.14Y-5.54
X6.14Y-5.64
X6.24Y-5.54
X6.24Y-5.64
X6.34Y-5.54
X6.34Y-5.64
X6.44Y-5.54
X6.44Y-5.64
X6.54Y-5.54
X6.54Y-5.64
X6.88Y-5.38
X6.88Y-5.48
X6.88Y-5.58
X6.88Y-5.68
X4.52Y-3.24
X4.62Y-3.24
X4.8Y-5.52
X4.9Y-5.52
X5.0Y-5.52
X5.1Y-5.52
X5.2Y-5.52
X3.28Y-4.32
X3.28Y-4.42
X3.38Y-4.32
X3.38Y-4.42
X3.48Y-4.32
X3.48Y-4.42
X3.58Y-4.32
X3.58Y-4.42
X3.68Y-4.32
X3.68Y-4.42
X3.78Y-4.32
X3.78Y-4.42
X3.88Y-4.32
X3.88Y-4.42
X3.98Y-4.32
X3.98Y-4.42
X4.08Y-4.32
X4.08Y-4.42
X4.18Y-4.32
X4.18Y-4.42
X6.7Y-3.825
X6.7Y-3.925
X6.7Y-4.025
X6.7Y-4.125
X6.7Y-4.225
X6.7Y-4.325
X6.7Y-4.425
X6.7Y-4.525
X6.7Y-4.625
X6.7Y-4.725
X6.8Y-3.825
X6.8Y-3.925
X6.8Y-4.025
X6.8Y-4.125
X6.8Y-4.225
X6.8Y-4.325
X6.8Y-4.425
X6.8Y-4.525
X6.8Y-4.625
X6.8Y-4.725
T4
X4.0687Y-5.1881
X4.0687Y-5.4696
X3.5113Y-4.9304
X3.5113Y-5.2119
T5
X5.18Y-3.12
X5.18Y-3.3365
X5.3454Y-3.12
X5.3454Y-3.3365
X4.06Y-3.12
X4.06Y-3.3365
X4.2254Y-3.12
X4.2254Y-3.3365
X3.58Y-3.12
X3.58Y-3.3365
X3.7454Y-3.12
X3.7454Y-3.3365
T0
M30
