%TF.GenerationSoftware,KiCad,Pcbnew,(5.1.2)-1*%
%TF.CreationDate,2019-08-11T00:06:10+02:00*%
%TF.ProjectId,DutAdapter,44757441-6461-4707-9465-722e6b696361,4*%
%TF.SameCoordinates,Original*%
%TF.FileFunction,Legend,Bot*%
%TF.FilePolarity,Positive*%
%FSLAX46Y46*%
G04 Gerber Fmt 4.6, Leading zero omitted, Abs format (unit mm)*
G04 Created by KiCad (PCBNEW (5.1.2)-1) date 2019-08-11 00:06:10*
%MOMM*%
%LPD*%
G04 APERTURE LIST*
%TA.AperFunction,NonConductor*%
%ADD10C,0.381000*%
%TD*%
%ADD11O,3.100000X3.700000*%
%ADD12C,0.100000*%
%ADD13C,3.100000*%
%ADD14O,2.100000X2.100000*%
%ADD15R,2.100000X2.100000*%
%ADD16C,2.100000*%
%ADD17C,2.250000*%
%ADD18C,1.240000*%
%ADD19R,1.240000X1.240000*%
%ADD20C,3.900120*%
G04 APERTURE END LIST*
D10*
%TO.C,REF\002A\002A*%
X77216000Y-156464000D02*
X77216000Y-76464160D01*
X77216000Y-76464160D02*
X177215800Y-76464160D01*
X177215800Y-76464160D02*
X177215800Y-156464000D01*
X177215800Y-156464000D02*
X77216000Y-156464000D01*
%TD*%
%LPC*%
D11*
%TO.C,J1*%
X95132000Y-84748000D03*
X90932000Y-84748000D03*
X95132000Y-79248000D03*
D12*
G36*
X92223097Y-77399382D02*
G01*
X92250960Y-77403515D01*
X92278285Y-77410360D01*
X92304807Y-77419849D01*
X92330271Y-77431893D01*
X92354432Y-77446375D01*
X92377057Y-77463155D01*
X92397929Y-77482071D01*
X92416845Y-77502943D01*
X92433625Y-77525568D01*
X92448107Y-77549729D01*
X92460151Y-77575193D01*
X92469640Y-77601715D01*
X92476485Y-77629040D01*
X92480618Y-77656903D01*
X92482000Y-77685038D01*
X92482000Y-80810962D01*
X92480618Y-80839097D01*
X92476485Y-80866960D01*
X92469640Y-80894285D01*
X92460151Y-80920807D01*
X92448107Y-80946271D01*
X92433625Y-80970432D01*
X92416845Y-80993057D01*
X92397929Y-81013929D01*
X92377057Y-81032845D01*
X92354432Y-81049625D01*
X92330271Y-81064107D01*
X92304807Y-81076151D01*
X92278285Y-81085640D01*
X92250960Y-81092485D01*
X92223097Y-81096618D01*
X92194962Y-81098000D01*
X89669038Y-81098000D01*
X89640903Y-81096618D01*
X89613040Y-81092485D01*
X89585715Y-81085640D01*
X89559193Y-81076151D01*
X89533729Y-81064107D01*
X89509568Y-81049625D01*
X89486943Y-81032845D01*
X89466071Y-81013929D01*
X89447155Y-80993057D01*
X89430375Y-80970432D01*
X89415893Y-80946271D01*
X89403849Y-80920807D01*
X89394360Y-80894285D01*
X89387515Y-80866960D01*
X89383382Y-80839097D01*
X89382000Y-80810962D01*
X89382000Y-77685038D01*
X89383382Y-77656903D01*
X89387515Y-77629040D01*
X89394360Y-77601715D01*
X89403849Y-77575193D01*
X89415893Y-77549729D01*
X89430375Y-77525568D01*
X89447155Y-77502943D01*
X89466071Y-77482071D01*
X89486943Y-77463155D01*
X89509568Y-77446375D01*
X89533729Y-77431893D01*
X89559193Y-77419849D01*
X89585715Y-77410360D01*
X89613040Y-77403515D01*
X89640903Y-77399382D01*
X89669038Y-77398000D01*
X92194962Y-77398000D01*
X92223097Y-77399382D01*
X92223097Y-77399382D01*
G37*
D13*
X90932000Y-79248000D03*
%TD*%
D11*
%TO.C,J2*%
X107324000Y-84748000D03*
X103124000Y-84748000D03*
X107324000Y-79248000D03*
D12*
G36*
X104415097Y-77399382D02*
G01*
X104442960Y-77403515D01*
X104470285Y-77410360D01*
X104496807Y-77419849D01*
X104522271Y-77431893D01*
X104546432Y-77446375D01*
X104569057Y-77463155D01*
X104589929Y-77482071D01*
X104608845Y-77502943D01*
X104625625Y-77525568D01*
X104640107Y-77549729D01*
X104652151Y-77575193D01*
X104661640Y-77601715D01*
X104668485Y-77629040D01*
X104672618Y-77656903D01*
X104674000Y-77685038D01*
X104674000Y-80810962D01*
X104672618Y-80839097D01*
X104668485Y-80866960D01*
X104661640Y-80894285D01*
X104652151Y-80920807D01*
X104640107Y-80946271D01*
X104625625Y-80970432D01*
X104608845Y-80993057D01*
X104589929Y-81013929D01*
X104569057Y-81032845D01*
X104546432Y-81049625D01*
X104522271Y-81064107D01*
X104496807Y-81076151D01*
X104470285Y-81085640D01*
X104442960Y-81092485D01*
X104415097Y-81096618D01*
X104386962Y-81098000D01*
X101861038Y-81098000D01*
X101832903Y-81096618D01*
X101805040Y-81092485D01*
X101777715Y-81085640D01*
X101751193Y-81076151D01*
X101725729Y-81064107D01*
X101701568Y-81049625D01*
X101678943Y-81032845D01*
X101658071Y-81013929D01*
X101639155Y-80993057D01*
X101622375Y-80970432D01*
X101607893Y-80946271D01*
X101595849Y-80920807D01*
X101586360Y-80894285D01*
X101579515Y-80866960D01*
X101575382Y-80839097D01*
X101574000Y-80810962D01*
X101574000Y-77685038D01*
X101575382Y-77656903D01*
X101579515Y-77629040D01*
X101586360Y-77601715D01*
X101595849Y-77575193D01*
X101607893Y-77549729D01*
X101622375Y-77525568D01*
X101639155Y-77502943D01*
X101658071Y-77482071D01*
X101678943Y-77463155D01*
X101701568Y-77446375D01*
X101725729Y-77431893D01*
X101751193Y-77419849D01*
X101777715Y-77410360D01*
X101805040Y-77403515D01*
X101832903Y-77399382D01*
X101861038Y-77398000D01*
X104386962Y-77398000D01*
X104415097Y-77399382D01*
X104415097Y-77399382D01*
G37*
D13*
X103124000Y-79248000D03*
%TD*%
D14*
%TO.C,J3*%
X114808000Y-82296000D03*
D15*
X117348000Y-82296000D03*
%TD*%
D11*
%TO.C,J4*%
X135772000Y-84748000D03*
X131572000Y-84748000D03*
X135772000Y-79248000D03*
D12*
G36*
X132863097Y-77399382D02*
G01*
X132890960Y-77403515D01*
X132918285Y-77410360D01*
X132944807Y-77419849D01*
X132970271Y-77431893D01*
X132994432Y-77446375D01*
X133017057Y-77463155D01*
X133037929Y-77482071D01*
X133056845Y-77502943D01*
X133073625Y-77525568D01*
X133088107Y-77549729D01*
X133100151Y-77575193D01*
X133109640Y-77601715D01*
X133116485Y-77629040D01*
X133120618Y-77656903D01*
X133122000Y-77685038D01*
X133122000Y-80810962D01*
X133120618Y-80839097D01*
X133116485Y-80866960D01*
X133109640Y-80894285D01*
X133100151Y-80920807D01*
X133088107Y-80946271D01*
X133073625Y-80970432D01*
X133056845Y-80993057D01*
X133037929Y-81013929D01*
X133017057Y-81032845D01*
X132994432Y-81049625D01*
X132970271Y-81064107D01*
X132944807Y-81076151D01*
X132918285Y-81085640D01*
X132890960Y-81092485D01*
X132863097Y-81096618D01*
X132834962Y-81098000D01*
X130309038Y-81098000D01*
X130280903Y-81096618D01*
X130253040Y-81092485D01*
X130225715Y-81085640D01*
X130199193Y-81076151D01*
X130173729Y-81064107D01*
X130149568Y-81049625D01*
X130126943Y-81032845D01*
X130106071Y-81013929D01*
X130087155Y-80993057D01*
X130070375Y-80970432D01*
X130055893Y-80946271D01*
X130043849Y-80920807D01*
X130034360Y-80894285D01*
X130027515Y-80866960D01*
X130023382Y-80839097D01*
X130022000Y-80810962D01*
X130022000Y-77685038D01*
X130023382Y-77656903D01*
X130027515Y-77629040D01*
X130034360Y-77601715D01*
X130043849Y-77575193D01*
X130055893Y-77549729D01*
X130070375Y-77525568D01*
X130087155Y-77502943D01*
X130106071Y-77482071D01*
X130126943Y-77463155D01*
X130149568Y-77446375D01*
X130173729Y-77431893D01*
X130199193Y-77419849D01*
X130225715Y-77410360D01*
X130253040Y-77403515D01*
X130280903Y-77399382D01*
X130309038Y-77398000D01*
X132834962Y-77398000D01*
X132863097Y-77399382D01*
X132863097Y-77399382D01*
G37*
D13*
X131572000Y-79248000D03*
%TD*%
D16*
%TO.C,J5*%
X172720000Y-120015000D03*
X170180000Y-120015000D03*
X172720000Y-117475000D03*
X170180000Y-117475000D03*
X172720000Y-114935000D03*
X170180000Y-114935000D03*
X172720000Y-112395000D03*
X170180000Y-112395000D03*
X172720000Y-109855000D03*
X170180000Y-109855000D03*
X172720000Y-107315000D03*
X170180000Y-107315000D03*
X172720000Y-104775000D03*
X170180000Y-104775000D03*
X172720000Y-102235000D03*
X170180000Y-102235000D03*
X172720000Y-99695000D03*
X170180000Y-99695000D03*
X172720000Y-97155000D03*
D15*
X170180000Y-97155000D03*
%TD*%
D16*
%TO.C,J7*%
X161544000Y-103124000D03*
X159004000Y-103124000D03*
X161544000Y-100584000D03*
X159004000Y-100584000D03*
X161544000Y-98044000D03*
X159004000Y-98044000D03*
X161544000Y-95504000D03*
X159004000Y-95504000D03*
X161544000Y-92964000D03*
X159004000Y-92964000D03*
X161544000Y-90424000D03*
X159004000Y-90424000D03*
X161544000Y-87884000D03*
X159004000Y-87884000D03*
X161544000Y-85344000D03*
D15*
X159004000Y-85344000D03*
%TD*%
D14*
%TO.C,J8*%
X148844000Y-102108000D03*
X146304000Y-102108000D03*
D15*
X143764000Y-102108000D03*
%TD*%
D16*
%TO.C,J9*%
X152400000Y-149860000D03*
X152400000Y-152400000D03*
X149860000Y-149860000D03*
X149860000Y-152400000D03*
X147320000Y-149860000D03*
X147320000Y-152400000D03*
X144780000Y-149860000D03*
X144780000Y-152400000D03*
X142240000Y-149860000D03*
X142240000Y-152400000D03*
X139700000Y-149860000D03*
X139700000Y-152400000D03*
X137160000Y-149860000D03*
X137160000Y-152400000D03*
X134620000Y-149860000D03*
X134620000Y-152400000D03*
X132080000Y-149860000D03*
X132080000Y-152400000D03*
X129540000Y-149860000D03*
X129540000Y-152400000D03*
X127000000Y-149860000D03*
X127000000Y-152400000D03*
X124460000Y-149860000D03*
X124460000Y-152400000D03*
X121920000Y-149860000D03*
X121920000Y-152400000D03*
X119380000Y-149860000D03*
X119380000Y-152400000D03*
X116840000Y-149860000D03*
X116840000Y-152400000D03*
X114300000Y-149860000D03*
X114300000Y-152400000D03*
X111760000Y-149860000D03*
X111760000Y-152400000D03*
X109220000Y-149860000D03*
X109220000Y-152400000D03*
X106680000Y-149860000D03*
X106680000Y-152400000D03*
X104140000Y-149860000D03*
D15*
X104140000Y-152400000D03*
%TD*%
D14*
%TO.C,J10*%
X170688000Y-139192000D03*
X170688000Y-141732000D03*
D15*
X170688000Y-144272000D03*
%TD*%
D14*
%TO.C,J11*%
X174752000Y-136652000D03*
X174752000Y-139192000D03*
X174752000Y-141732000D03*
D15*
X174752000Y-144272000D03*
%TD*%
D17*
%TO.C,J12*%
X89188000Y-132383000D03*
X89188000Y-125233000D03*
D18*
X89408000Y-130108000D03*
X88408000Y-129458000D03*
X89408000Y-128808000D03*
X88408000Y-128158000D03*
D19*
X89408000Y-127508000D03*
%TD*%
D14*
%TO.C,J13*%
X95504000Y-132588000D03*
X95504000Y-130048000D03*
X95504000Y-127508000D03*
X95504000Y-124968000D03*
D15*
X95504000Y-122428000D03*
%TD*%
D17*
%TO.C,J15*%
X103344000Y-131777000D03*
X103344000Y-138927000D03*
D18*
X103124000Y-134052000D03*
X104124000Y-134702000D03*
X103124000Y-135352000D03*
X104124000Y-136002000D03*
D19*
X103124000Y-136652000D03*
%TD*%
D14*
%TO.C,J16*%
X121920000Y-140208000D03*
X124460000Y-140208000D03*
X127000000Y-140208000D03*
X129540000Y-140208000D03*
D15*
X132080000Y-140208000D03*
%TD*%
D14*
%TO.C,J14*%
X83312000Y-112268000D03*
X83312000Y-109728000D03*
X85852000Y-112268000D03*
X85852000Y-109728000D03*
X88392000Y-112268000D03*
X88392000Y-109728000D03*
X90932000Y-112268000D03*
X90932000Y-109728000D03*
X93472000Y-112268000D03*
X93472000Y-109728000D03*
X96012000Y-112268000D03*
X96012000Y-109728000D03*
X98552000Y-112268000D03*
X98552000Y-109728000D03*
X101092000Y-112268000D03*
X101092000Y-109728000D03*
X103632000Y-112268000D03*
X103632000Y-109728000D03*
X106172000Y-112268000D03*
D15*
X106172000Y-109728000D03*
%TD*%
D14*
%TO.C,J17*%
X138176000Y-143256000D03*
X138176000Y-140716000D03*
X140716000Y-143256000D03*
X140716000Y-140716000D03*
X143256000Y-143256000D03*
X143256000Y-140716000D03*
X145796000Y-143256000D03*
X145796000Y-140716000D03*
X148336000Y-143256000D03*
X148336000Y-140716000D03*
X150876000Y-143256000D03*
X150876000Y-140716000D03*
X153416000Y-143256000D03*
X153416000Y-140716000D03*
X155956000Y-143256000D03*
X155956000Y-140716000D03*
X158496000Y-143256000D03*
X158496000Y-140716000D03*
X161036000Y-143256000D03*
X161036000Y-140716000D03*
X163576000Y-143256000D03*
X163576000Y-140716000D03*
X166116000Y-143256000D03*
D15*
X166116000Y-140716000D03*
%TD*%
D20*
%TO.C,REF\002A\002A*%
X82217260Y-151462740D03*
X82217260Y-81462880D03*
X172217080Y-81462880D03*
X172217080Y-151462740D03*
%TD*%
M02*
